<?xml version="1.0" standalone="no"?>
<!DOCTYPE svg PUBLIC "-//W3C//DTD SVG 20010904//EN"
 "http://www.w3.org/TR/2001/REC-SVG-20010904/DTD/svg10.dtd">
<svg version="1.0" xmlns="http://www.w3.org/2000/svg"
 width="260.000000pt" height="260.000000pt" viewBox="0 0 260.000000 260.000000"
 preserveAspectRatio="xMidYMid meet">
<metadata>
Created by potrace 1.11, written by Peter Selinger 2001-2013
</metadata>
<g transform="translate(0.000000,260.000000) scale(0.100000,-0.100000)"
fill="#000000" stroke="none">
<path d="M0 1300 l0 -1300 1300 0 1300 0 0 1300 0 1300 -1300 0 -1300 0 0
-1300z m714 586 c20 -15 48 -52 65 -89 17 -34 112 -294 210 -577 99 -283 183
-523 186 -533 7 -16 -1 -17 -111 -15 l-118 3 -61 160 -60 160 -207 3 -206 2
-29 -82 c-17 -46 -43 -120 -58 -165 l-28 -83 -119 0 c-65 0 -118 3 -118 7 0
17 354 1033 380 1088 32 72 73 123 115 141 45 21 117 12 159 -20z m1562 7 c63
-33 119 -104 145 -181 31 -91 32 -257 1 -350 l-20 -63 24 -55 c55 -125 48
-281 -21 -414 -26 -51 -96 -121 -140 -141 -37 -17 -77 -19 -522 -19 l-483 0 0
625 0 626 488 -3 c480 -3 488 -3 528 -25z"/>
<path d="M569 1452 l-46 -127 90 -3 c49 -1 92 -1 94 2 5 4 -69 213 -85 242 -4
8 -25 -35 -53 -114z"/>
<path d="M1480 1530 l0 -70 370 0 370 0 0 70 0 70 -370 0 -370 0 0 -70z"/>
<path d="M1480 1065 l0 -75 370 0 370 0 0 75 0 75 -370 0 -370 0 0 -75z"/>
</g>
</svg>
